ffmpeg started on 2025-06-06 at 18:12:26
Report written to "D:\Convert\FFMetrics\reports\psnr_report-6.txt"
Log level: 32
Command line:
ffmpeg -hide_banner -nostdin -i "G:\\\xc0\xed\xe8\xec\xe5\\\xce\xed\xe3\xee\xe8\xed\xe3\xe8\\!_36_\xce\xf1\xe5\xed\xfc_2024\\DreamCast\\\xcf\xf0\xee\xf9\xe0\xe9, \xe6\xe8\xe7\xed\xfc \xe4\xf0\xe0\xea\xee\xed\xe0. \xc7\xe4\xf0\xe0\xe2\xf1\xf2\xe2\xf3\xe9, \xe6\xe8\xe7\xed\xfc \xf7\xe5\xeb\xee\xe2\xe5\xea\xe0\\[DC] Sayonara Ryuusei Konnichiwa Jinsei - 03_Telegram_HEVC.mkv" -i "G:\\\xc0\xed\xe8\xec\xe5\\\xce\xed\xe3\xee\xe8\xed\xe3\xe8\\!_36_\xce\xf1\xe5\xed\xfc_2024\\DreamCast\\\xcf\xf0\xee\xf9\xe0\xe9, \xe6\xe8\xe7\xed\xfc \xe4\xf0\xe0\xea\xee\xed\xe0. \xc7\xe4\xf0\xe0\xe2\xf1\xf2\xe2\xf3\xe9, \xe6\xe8\xe7\xed\xfc \xf7\xe5\xeb\xee\xe2\xe5\xea\xe0\\[DC] Sayonara Ryuusei Konnichiwa Jinsei - 03_Telegram.mp4" -lavfi "[0:v]settb=AVTB,setpts=PTS-STARTPTS,format=pix_fmts=yuv420p10,fps=24000/1001,scale=1920:1080:flags=bicubic[main];[1:v]settb=AVTB,setpts=PTS-STARTPTS,format=pix_fmts=yuv420p,fps=24000/1001,scale=1920:1080:flags=bicubic[ref];[main][ref]psnr=eof_action=endall:stats_file='D\\:/Convert/FFMetrics/logs/psnr_logfile-6.txt'" -f null -
Input #0, matroska,webm, from 'G:\Аниме\Онгоинги\!_36_Осень_2024\DreamCast\Прощай, жизнь дракона. Здравствуй, жизнь человека\[DC] Sayonara Ryuusei Konnichiwa Jinsei - 03_Telegram_HEVC.mkv':
  Metadata:
    COMPATIBLE_BRANDS: isomiso2avc1mp41
    MAJOR_BRAND     : isom
    MINOR_VERSION   : 512
    ENCODER         : Lavf61.7.100
  Duration: 00:24:16.68, start: -0.021000, bitrate: 1104 kb/s
  Stream #0:0: Video: hevc (Main 10), yuv420p10le(tv, bt709, progressive), 1920x1080 [SAR 1:1 DAR 16:9], 23.98 fps, 23.98 tbr, 1k tbn (default)
      Metadata:
        HANDLER_NAME    : VideoHandler
        VENDOR_ID       : [0][0][0][0]
        ENCODER         : Lavc61.19.100 libx265
        BPS             : 906803
        DURATION        : 00:24:16.538708333
        NUMBER_OF_FRAMES: 34922
        NUMBER_OF_BYTES : 165099196
        _STATISTICS_WRITING_APP: mkvpropedit v66.0.0 ('Josie') 64-bit
        _STATISTICS_WRITING_DATE_UTC: 2025-06-03 09:22:37
        _STATISTICS_TAGS: BPS DURATION NUMBER_OF_FRAMES NUMBER_OF_BYTES
  Stream #0:1: Audio: aac (LC), 48000 Hz, stereo, fltp (default)
      Metadata:
        HANDLER_NAME    : SoundHandler
        VENDOR_ID       : [0][0][0][0]
        ENCODER         : Lavc61.19.100 aac
        BPS             : 193448
        DURATION        : 00:24:16.682000000
        NUMBER_OF_FRAMES: 68283
        NUMBER_OF_BYTES : 35224076
        _STATISTICS_WRITING_APP: mkvpropedit v66.0.0 ('Josie') 64-bit
        _STATISTICS_WRITING_DATE_UTC: 2025-06-03 09:22:37
        _STATISTICS_TAGS: BPS DURATION NUMBER_OF_FRAMES NUMBER_OF_BYTES
Input #1, mov,mp4,m4a,3gp,3g2,mj2, from 'G:\Аниме\Онгоинги\!_36_Осень_2024\DreamCast\Прощай, жизнь дракона. Здравствуй, жизнь человека\[DC] Sayonara Ryuusei Konnichiwa Jinsei - 03_Telegram.mp4':
  Metadata:
    major_brand     : isom
    minor_version   : 512
    compatible_brands: isomiso2avc1mp41
    encoder         : Lavf61.1.100
  Duration: 00:24:16.65, start: 0.000000, bitrate: 3736 kb/s
  Stream #1:0[0x1](und): Video: h264 (High) (avc1 / 0x31637661), yuv420p(tv, bt709, progressive), 1920x1080 [SAR 1:1 DAR 16:9], 3588 kb/s, 23.98 fps, 23.98 tbr, 24k tbn (default)
      Metadata:
        handler_name    : VideoHandler
        vendor_id       : [0][0][0][0]
        encoder         : Lavc61.3.100 h264_qsv
  Stream #1:1[0x2](und): Audio: aac (HE-AACv2) (mp4a / 0x6134706D), 48000 Hz, stereo, fltp, 144 kb/s (default)
      Metadata:
        handler_name    : SoundHandler
        vendor_id       : [0][0][0][0]
Stream mapping:
  Stream #0:0 (hevc) -> settb:default
  Stream #1:0 (h264) -> settb:default
  psnr:default -> Stream #0:0 (wrapped_avframe)
  Stream #0:1 -> #0:1 (aac (native) -> pcm_s16le (native))
Output #0, null, to 'pipe:':
  Metadata:
    COMPATIBLE_BRANDS: isomiso2avc1mp41
    MAJOR_BRAND     : isom
    MINOR_VERSION   : 512
    encoder         : Lavf61.7.100
  Stream #0:0: Video: wrapped_avframe, yuv420p10le(tv, bt709, progressive), 1920x1080 [SAR 1:1 DAR 16:9], q=2-31, 200 kb/s, 23.98 fps, 23.98 tbn
      Metadata:
        encoder         : Lavc61.19.100 wrapped_avframe
  Stream #0:1: Audio: pcm_s16le, 48000 Hz, stereo, s16, 1536 kb/s (default)
      Metadata:
        HANDLER_NAME    : SoundHandler
        VENDOR_ID       : [0][0][0][0]
        _STATISTICS_TAGS: BPS DURATION NUMBER_OF_FRAMES NUMBER_OF_BYTES
        BPS             : 193448
        DURATION        : 00:24:16.682000000
        NUMBER_OF_FRAMES: 68283
        NUMBER_OF_BYTES : 35224076
        _STATISTICS_WRITING_APP: mkvpropedit v66.0.0 ('Josie') 64-bit
        _STATISTICS_WRITING_DATE_UTC: 2025-06-03 09:22:37
        encoder         : Lavc61.19.100 pcm_s16le
frame=  178 fps=0.0 q=-0.0 size=N/A time=00:00:07.42 bitrate=N/A speed=14.2x    frame=  423 fps=409 q=-0.0 size=N/A time=00:00:17.64 bitrate=N/A speed=17.1x    frame=  695 fps=446 q=-0.0 size=N/A time=00:00:28.98 bitrate=N/A speed=18.6x    frame=  942 fps=456 q=-0.0 size=N/A time=00:00:39.28 bitrate=N/A speed=  19x    frame= 1182 fps=457 q=-0.0 size=N/A time=00:00:49.29 bitrate=N/A speed=19.1x    frame= 1377 fps=445 q=-0.0 size=N/A time=00:00:57.43 bitrate=N/A speed=18.6x    frame= 1578 fps=436 q=-0.0 size=N/A time=00:01:05.81 bitrate=N/A speed=18.2x    frame= 1769 fps=428 q=-0.0 size=N/A time=00:01:13.78 bitrate=N/A speed=17.9x    frame= 1964 fps=423 q=-0.0 size=N/A time=00:01:21.91 bitrate=N/A speed=17.7x    frame= 2153 fps=417 q=-0.0 size=N/A time=00:01:29.79 bitrate=N/A speed=17.4x    frame= 2348 fps=413 q=-0.0 size=N/A time=00:01:37.93 bitrate=N/A speed=17.2x    frame= 2558 fps=413 q=-0.0 size=N/A time=00:01:46.68 bitrate=N/A speed=17.2x    frame= 2760 fps=411 q=-0.0 size=N/A time=00:01:55.11 bitrate=N/A speed=17.1x    frame= 3018 fps=418 q=-0.0 size=N/A time=00:02:05.87 bitrate=N/A speed=17.4x    frame= 3265 fps=422 q=-0.0 size=N/A time=00:02:16.17 bitrate=N/A speed=17.6x    frame= 3501 fps=424 q=-0.0 size=N/A time=00:02:26.02 bitrate=N/A speed=17.7x    frame= 3746 fps=427 q=-0.0 size=N/A time=00:02:36.23 bitrate=N/A speed=17.8x    frame= 4000 fps=431 q=-0.0 size=N/A time=00:02:46.83 bitrate=N/A speed=  18x    frame= 4266 fps=435 q=-0.0 size=N/A time=00:02:57.92 bitrate=N/A speed=18.2x    frame= 4539 fps=440 q=-0.0 size=N/A time=00:03:09.31 bitrate=N/A speed=18.3x    frame= 4796 fps=443 q=-0.0 size=N/A time=00:03:20.03 bitrate=N/A speed=18.5x    frame= 5066 fps=446 q=-0.0 size=N/A time=00:03:31.29 bitrate=N/A speed=18.6x    frame= 5303 fps=446 q=-0.0 size=N/A time=00:03:41.17 bitrate=N/A speed=18.6x    frame= 5556 fps=448 q=-0.0 size=N/A time=00:03:51.77 bitrate=N/A speed=18.7x    frame= 5821 fps=450 q=-0.0 size=N/A time=00:04:02.78 bitrate=N/A speed=18.8x    frame= 6078 fps=452 q=-0.0 size=N/A time=00:04:13.50 bitrate=N/A speed=18.8x    frame= 6349 fps=455 q=-0.0 size=N/A time=00:04:24.80 bitrate=N/A speed=  19x    frame= 6598 fps=456 q=-0.0 size=N/A time=00:04:35.19 bitrate=N/A speed=  19x    frame= 6852 fps=457 q=-0.0 size=N/A time=00:04:45.78 bitrate=N/A speed=  19x    frame= 7113 fps=458 q=-0.0 size=N/A time=00:04:56.67 bitrate=N/A speed=19.1x    frame= 7369 fps=460 q=-0.0 size=N/A time=00:05:07.34 bitrate=N/A speed=19.2x    frame= 7594 fps=459 q=-0.0 size=N/A time=00:05:16.73 bitrate=N/A speed=19.1x    frame= 7826 fps=459 q=-0.0 size=N/A time=00:05:26.40 bitrate=N/A speed=19.1x    frame= 8097 fps=460 q=-0.0 size=N/A time=00:05:37.71 bitrate=N/A speed=19.2x    frame= 8343 fps=461 q=-0.0 size=N/A time=00:05:47.97 bitrate=N/A speed=19.2x    frame= 8602 fps=462 q=-0.0 size=N/A time=00:05:58.77 bitrate=N/A speed=19.3x    frame= 8875 fps=464 q=-0.0 size=N/A time=00:06:10.16 bitrate=N/A speed=19.3x    frame= 9131 fps=465 q=-0.0 size=N/A time=00:06:20.83 bitrate=N/A speed=19.4x    frame= 9407 fps=466 q=-0.0 size=N/A time=00:06:32.35 bitrate=N/A speed=19.5x    frame= 9655 fps=467 q=-0.0 size=N/A time=00:06:42.69 bitrate=N/A speed=19.5x    frame= 9915 fps=468 q=-0.0 size=N/A time=00:06:53.53 bitrate=N/A speed=19.5x    frame=10152 fps=467 q=-0.0 size=N/A time=00:07:03.42 bitrate=N/A speed=19.5x    frame=10346 fps=465 q=-0.0 size=N/A time=00:07:11.51 bitrate=N/A speed=19.4x    frame=10584 fps=465 q=-0.0 size=N/A time=00:07:21.44 bitrate=N/A speed=19.4x    frame=10835 fps=466 q=-0.0 size=N/A time=00:07:31.90 bitrate=N/A speed=19.4x    frame=11099 fps=467 q=-0.0 size=N/A time=00:07:42.92 bitrate=N/A speed=19.5x    frame=11292 fps=465 q=-0.0 size=N/A time=00:07:50.97 bitrate=N/A speed=19.4x    frame=11542 fps=465 q=-0.0 size=N/A time=00:08:01.39 bitrate=N/A speed=19.4x    frame=11814 fps=466 q=-0.0 size=N/A time=00:08:12.74 bitrate=N/A speed=19.5x    frame=12090 fps=468 q=-0.0 size=N/A time=00:08:24.25 bitrate=N/A speed=19.5x    frame=12358 fps=469 q=-0.0 size=N/A time=00:08:35.43 bitrate=N/A speed=19.5x    frame=12623 fps=470 q=-0.0 size=N/A time=00:08:46.48 bitrate=N/A speed=19.6x    frame=12856 fps=469 q=-0.0 size=N/A time=00:08:56.20 bitrate=N/A speed=19.6x    frame=13137 fps=471 q=-0.0 size=N/A time=00:09:07.96 bitrate=N/A speed=19.6x    frame=13414 fps=472 q=-0.0 size=N/A time=00:09:19.47 bitrate=N/A speed=19.7x    frame=13678 fps=473 q=-0.0 size=N/A time=00:09:30.48 bitrate=N/A speed=19.7x    frame=13936 fps=473 q=-0.0 size=N/A time=00:09:41.24 bitrate=N/A speed=19.7x    frame=14191 fps=473 q=-0.0 size=N/A time=00:09:51.88 bitrate=N/A speed=19.7x    frame=14455 fps=474 q=-0.0 size=N/A time=00:10:02.89 bitrate=N/A speed=19.8x    frame=14747 fps=476 q=-0.0 size=N/A time=00:10:15.07 bitrate=N/A speed=19.8x    frame=14984 fps=475 q=-0.0 size=N/A time=00:10:24.95 bitrate=N/A speed=19.8x    frame=15235 fps=476 q=-0.0 size=N/A time=00:10:35.42 bitrate=N/A speed=19.8x    frame=15488 fps=476 q=-0.0 size=N/A time=00:10:45.97 bitrate=N/A speed=19.8x    frame=15733 fps=476 q=-0.0 size=N/A time=00:10:56.19 bitrate=N/A speed=19.8x    frame=15993 fps=476 q=-0.0 size=N/A time=00:11:07.04 bitrate=N/A speed=19.9x    frame=16280 fps=477 q=-0.0 size=N/A time=00:11:19.01 bitrate=N/A speed=19.9x    frame=16556 fps=478 q=-0.0 size=N/A time=00:11:30.52 bitrate=N/A speed=19.9x    frame=16839 fps=479 q=-0.0 size=N/A time=00:11:42.32 bitrate=N/A speed=  20x    frame=17094 fps=479 q=-0.0 size=N/A time=00:11:52.96 bitrate=N/A speed=  20x    frame=17369 fps=480 q=-0.0 size=N/A time=00:12:04.43 bitrate=N/A speed=  20x    frame=17605 fps=480 q=-0.0 size=N/A time=00:12:14.27 bitrate=N/A speed=  20x    frame=17847 fps=480 q=-0.0 size=N/A time=00:12:24.36 bitrate=N/A speed=  20x    frame=18122 fps=481 q=-0.0 size=N/A time=00:12:35.83 bitrate=N/A speed=  20x    frame=18382 fps=481 q=-0.0 size=N/A time=00:12:46.68 bitrate=N/A speed=20.1x    frame=18648 fps=481 q=-0.0 size=N/A time=00:12:57.77 bitrate=N/A speed=20.1x    frame=18895 fps=481 q=-0.0 size=N/A time=00:13:08.07 bitrate=N/A speed=20.1x    frame=19163 fps=482 q=-0.0 size=N/A time=00:13:19.25 bitrate=N/A speed=20.1x    frame=19416 fps=482 q=-0.0 size=N/A time=00:13:29.80 bitrate=N/A speed=20.1x    frame=19667 fps=482 q=-0.0 size=N/A time=00:13:40.27 bitrate=N/A speed=20.1x    frame=19920 fps=482 q=-0.0 size=N/A time=00:13:50.83 bitrate=N/A speed=20.1x    frame=20137 fps=481 q=-0.0 size=N/A time=00:13:59.88 bitrate=N/A speed=20.1x    frame=20372 fps=481 q=-0.0 size=N/A time=00:14:09.68 bitrate=N/A speed=20.1x    frame=20623 fps=481 q=-0.0 size=N/A time=00:14:20.15 bitrate=N/A speed=20.1x    frame=20890 fps=482 q=-0.0 size=N/A time=00:14:31.28 bitrate=N/A speed=20.1x    frame=21123 fps=481 q=-0.0 size=N/A time=00:14:41.00 bitrate=N/A speed=20.1x    frame=21370 fps=481 q=-0.0 size=N/A time=00:14:51.30 bitrate=N/A speed=20.1x    frame=21584 fps=480 q=-0.0 size=N/A time=00:15:00.23 bitrate=N/A speed=  20x    frame=21855 fps=481 q=-0.0 size=N/A time=00:15:11.53 bitrate=N/A speed=  20x    frame=22127 fps=481 q=-0.0 size=N/A time=00:15:22.88 bitrate=N/A speed=20.1x    frame=22364 fps=481 q=-0.0 size=N/A time=00:15:32.76 bitrate=N/A speed=20.1x    frame=22615 fps=481 q=-0.0 size=N/A time=00:15:43.23 bitrate=N/A speed=20.1x    frame=22900 fps=482 q=-0.0 size=N/A time=00:15:55.12 bitrate=N/A speed=20.1x    frame=23176 fps=482 q=-0.0 size=N/A time=00:16:06.63 bitrate=N/A speed=20.1x    frame=23460 fps=483 q=-0.0 size=N/A time=00:16:18.47 bitrate=N/A speed=20.2x    frame=23734 fps=484 q=-0.0 size=N/A time=00:16:29.90 bitrate=N/A speed=20.2x    frame=24012 fps=484 q=-0.0 size=N/A time=00:16:41.50 bitrate=N/A speed=20.2x    frame=24277 fps=485 q=-0.0 size=N/A time=00:16:52.55 bitrate=N/A speed=20.2x    frame=24506 fps=484 q=-0.0 size=N/A time=00:17:02.10 bitrate=N/A speed=20.2x    frame=24721 fps=483 q=-0.0 size=N/A time=00:17:11.07 bitrate=N/A speed=20.2x    frame=24982 fps=484 q=-0.0 size=N/A time=00:17:21.95 bitrate=N/A speed=20.2x    frame=25220 fps=484 q=-0.0 size=N/A time=00:17:31.88 bitrate=N/A speed=20.2x    frame=25448 fps=483 q=-0.0 size=N/A time=00:17:41.39 bitrate=N/A speed=20.1x    frame=25669 fps=483 q=-0.0 size=N/A time=00:17:50.61 bitrate=N/A speed=20.1x    frame=25907 fps=482 q=-0.0 size=N/A time=00:18:00.53 bitrate=N/A speed=20.1x    frame=26153 fps=482 q=-0.0 size=N/A time=00:18:10.79 bitrate=N/A speed=20.1x    frame=26373 fps=482 q=-0.0 size=N/A time=00:18:19.97 bitrate=N/A speed=20.1x    frame=26606 fps=481 q=-0.0 size=N/A time=00:18:29.69 bitrate=N/A speed=20.1x    frame=26869 fps=482 q=-0.0 size=N/A time=00:18:40.66 bitrate=N/A speed=20.1x    frame=27097 fps=481 q=-0.0 size=N/A time=00:18:50.17 bitrate=N/A speed=20.1x    frame=27356 fps=482 q=-0.0 size=N/A time=00:19:00.97 bitrate=N/A speed=20.1x    frame=27623 fps=482 q=-0.0 size=N/A time=00:19:12.10 bitrate=N/A speed=20.1x    frame=27870 fps=482 q=-0.0 size=N/A time=00:19:22.41 bitrate=N/A speed=20.1x    frame=28126 fps=482 q=-0.0 size=N/A time=00:19:33.08 bitrate=N/A speed=20.1x    frame=28387 fps=482 q=-0.0 size=N/A time=00:19:43.97 bitrate=N/A speed=20.1x    frame=28578 fps=481 q=-0.0 size=N/A time=00:19:51.94 bitrate=N/A speed=20.1x    frame=28841 fps=481 q=-0.0 size=N/A time=00:20:02.91 bitrate=N/A speed=20.1x    frame=29122 fps=482 q=-0.0 size=N/A time=00:20:14.63 bitrate=N/A speed=20.1x    frame=29370 fps=482 q=-0.0 size=N/A time=00:20:24.97 bitrate=N/A speed=20.1x    frame=29625 fps=482 q=-0.0 size=N/A time=00:20:35.60 bitrate=N/A speed=20.1x    frame=29880 fps=482 q=-0.0 size=N/A time=00:20:46.24 bitrate=N/A speed=20.1x    frame=30159 fps=483 q=-0.0 size=N/A time=00:20:57.88 bitrate=N/A speed=20.1x    frame=30418 fps=483 q=-0.0 size=N/A time=00:21:08.68 bitrate=N/A speed=20.1x    frame=30656 fps=483 q=-0.0 size=N/A time=00:21:18.61 bitrate=N/A speed=20.1x    frame=30917 fps=483 q=-0.0 size=N/A time=00:21:29.49 bitrate=N/A speed=20.1x    frame=31189 fps=483 q=-0.0 size=N/A time=00:21:40.84 bitrate=N/A speed=20.2x    frame=31445 fps=483 q=-0.0 size=N/A time=00:21:51.51 bitrate=N/A speed=20.2x    frame=31715 fps=484 q=-0.0 size=N/A time=00:22:02.77 bitrate=N/A speed=20.2x    frame=31989 fps=484 q=-0.0 size=N/A time=00:22:14.20 bitrate=N/A speed=20.2x    frame=32278 fps=485 q=-0.0 size=N/A time=00:22:26.26 bitrate=N/A speed=20.2x    frame=32514 fps=484 q=-0.0 size=N/A time=00:22:36.10 bitrate=N/A speed=20.2x    frame=32732 fps=484 q=-0.0 size=N/A time=00:22:45.19 bitrate=N/A speed=20.2x    frame=32954 fps=483 q=-0.0 size=N/A time=00:22:54.45 bitrate=N/A speed=20.2x    frame=33186 fps=483 q=-0.0 size=N/A time=00:23:04.13 bitrate=N/A speed=20.2x    frame=33431 fps=483 q=-0.0 size=N/A time=00:23:14.35 bitrate=N/A speed=20.2x    frame=33637 fps=483 q=-0.0 size=N/A time=00:23:22.94 bitrate=N/A speed=20.1x    frame=33843 fps=482 q=-0.0 size=N/A time=00:23:31.53 bitrate=N/A speed=20.1x    frame=34047 fps=481 q=-0.0 size=N/A time=00:23:40.04 bitrate=N/A speed=20.1x    frame=34190 fps=480 q=-0.0 size=N/A time=00:23:46.00 bitrate=N/A speed=  20x    frame=34369 fps=479 q=-0.0 size=N/A time=00:23:53.47 bitrate=N/A speed=  20x    frame=34603 fps=479 q=-0.0 size=N/A time=00:24:03.23 bitrate=N/A speed=  20x    frame=34828 fps=478 q=-0.0 size=N/A time=00:24:12.61 bitrate=N/A speed=  20x    [Parsed_psnr_10 @ 0000014de2dacf80] PSNR y:48.226552 u:49.569880 v:50.322841 average:48.723655 min:42.538942 max:inf
[out#0/null @ 0000014de24d5b80] video:15006KiB audio:273132KiB subtitle:0KiB other streams:0KiB global headers:0KiB muxing overhead: unknown
frame=34922 fps=479 q=-0.0 Lsize=N/A time=00:24:16.53 bitrate=N/A speed=  20x    
